# xmcd CD database file
#
# Track frame offsets:
#	150
#	19765
#	39912
#	72360
#	92408
#	117496
#	143932
#	179425
#
# Disc length: 2932 seconds
#
# Revision: 0
# Processed by: cddbd v1.5.1PL2 Copyright (c) Steve Scherf et al.
# Submitted via: CDex 1.51
#
DISCID=680b7208
DTITLE=Akiko Pavolka Trio - Begin Again
DYEAR=2005
DGENRE=Jazz
TTITLE0=Begin Again
TTITLE1=Butterfly
TTITLE2=I Know Kung Fu
TTITLE3=Out at Sea
TTITLE4=Step out With Me
TTITLE5=See You Later
TTITLE6=Recollected Forward
TTITLE7=A Nolec Rab
EXTD=YEAR: 2005
EXTT0=
EXTT1=
EXTT2=
EXTT3=
EXTT4=
EXTT5=
EXTT6=
EXTT7=
PLAYORDER=
